<?xml version="1.0" encoding="utf-8"?>
<!-- Generator: Adobe Illustrator 22.1.0, SVG Export Plug-In . SVG Version: 6.00 Build 0)  -->
<svg version="1.1" id="图层_1" xmlns="http://www.w3.org/2000/svg" xmlns:xlink="http://www.w3.org/1999/xlink" x="0px" y="0px"
	 viewBox="0 0 128 128" style="enable-background:new 0 0 128 128;" xml:space="preserve">
<style type="text/css">
	.st0{display:none;fill:#FFFFFF;}
	.st1{fill:#D6D6D6;}
	.st2{fill:url(#SVGID_1_);}
	.st3{fill:#FFFFFF;}
	.st4{fill:#F2AAAE;}
	.st5{display:none;}
	.st6{display:inline;}
	.st7{fill:#D1CDC1;}
	.st8{fill:#A8A3A4;}
</style>
<path class="st0" d="M64,126c34.2,0,62-27.8,62-62S98.2,2,64,2S2,29.8,2,64S29.8,126,64,126z"/>
<path class="st1" d="M64,126.5c-34.5,0-62.5-28-62.5-62.5S29.5,1.5,64,1.5s62.5,28,62.5,62.5S98.5,126.5,64,126.5z M64,2.5
	C30.1,2.5,2.5,30.1,2.5,64s27.6,61.5,61.5,61.5s61.5-27.6,61.5-61.5S97.9,2.5,64,2.5z"/>
<linearGradient id="SVGID_1_" gradientUnits="userSpaceOnUse" x1="59.5982" y1="26.708" x2="59.5982" y2="116.902" gradientTransform="matrix(1 0 0 -1 0 130)">
	<stop  offset="0" style="stop-color:#FF7300"/>
	<stop  offset="9.263238e-02" style="stop-color:#F97C01"/>
	<stop  offset="0.2462" style="stop-color:#EA9602"/>
	<stop  offset="0.2889" style="stop-color:#E59E03"/>
	<stop  offset="0.8994" style="stop-color:#E5C500"/>
	<stop  offset="0.9944" style="stop-color:#BF6F00"/>
</linearGradient>
<path class="st2" d="M107.3,69.3c0,0-0.1-3-1.2-6.7s-3.7-7.7-3.7-7.7s-1.6-2.1-2.1-9.7c-0.5-7.7,6.2-12.8,6.2-12.8L87,13.2
	c0,0-4,5.9-12.6,5.9s-14.7-5.7-14.8-5.7l0,0l0,0l0,0l0,0c0,0-6.2,5.7-14.8,5.7c-8.7,0-12.5-6-12.5-6L12.8,32.6c0,0,6.6,4.9,6.1,12.6
	s-2.1,9.7-2.1,9.7s-2.6,4-3.7,7.7c-1.1,3.7-1.2,6.7-1.2,6.7s-0.4,6.9,5,15.1c5.3,8.2,14.7,9.5,14.7,9.5s10,0.5,16.4,2.9
	c6.4,2.3,11.6,6.6,11.6,6.6l0,0l0,0l0,0l0,0c0,0,5.2-4.3,11.6-6.6c6.4-2.3,16.4-2.9,16.4-2.9s9.4-1.2,14.7-9.5
	C107.6,76.2,107.3,69.3,107.3,69.3"/>
<path d="M57.5,97L57.5,97L57.5,97z M85.2,87.5L85.2,87.5L85.2,87.5L85.2,87.5 M34.1,87.5C34.1,87.5,34,87.5,34.1,87.5L34.1,87.5
	L34.1,87.5z M22.5,56.7C22.5,56.7,22.6,56.7,22.5,56.7C22.6,56.7,22.5,56.7,22.5,56.7 M45.9,24.7c3.7,0,7.6-0.9,11.2-2.5
	c1-0.4,1.8-0.9,2.5-1.3c2.6,1.5,7.6,3.8,13.7,3.8c5.8,0,10.3-2.1,13-3.7l11.8,11.6c-0.4,0.6-0.8,1.3-1.3,2.1
	c-0.9,1.6-1.6,3.3-2.1,4.9c-0.6,2.1-0.9,4.2-0.8,6.2c0.4,6.9,1.8,9.7,2.5,10.7c0.3,0.5,2.2,3.5,3,6.2c0.9,2.9,1,5.4,1,5.4l0,0l0,0
	v0.1l0,0c0,0,0,1.4-0.4,3.6c-0.4,2-1.4,5.1-3.6,8.5c-1.7,2.6-4,4.5-7,5.9c-2,0.9-3.7,1.3-4.1,1.3c-1.4,0.1-10.1,0.7-16,2.8
	c-4,1.4-7.5,3.6-9.6,5.1c-2.2-1.4-5.7-3.6-9.7-5c-5.9-2.2-14.6-2.8-16-2.8c-0.4-0.1-2.1-0.4-4.1-1.3c-3-1.4-5.4-3.4-7-5.9
	c-2.2-3.4-3.2-6.5-3.6-8.5c-0.5-2.2-0.4-3.6-0.4-3.6l0,0l0,0v-0.1l0,0c0,0,0.1-2.5,1-5.4c0.8-2.7,2.7-5.8,3-6.2
	c0.7-1,2.1-3.8,2.5-10.7c0.1-2-0.1-4.1-0.8-6.2c-0.5-1.6-1.2-3.3-2.1-4.9c-0.4-0.8-0.9-1.5-1.3-2.1l11.9-11.6
	C35.5,22.7,40.1,24.7,45.9,24.7 M86.7,16.8c0,0-5.4,4.6-13.4,4.6S59.6,17,59.6,16.9c0,0-4.6,3.6-11.3,4.3c-0.8,0.1-1.6,0.1-2.5,0.1
	c-8,0-13.4-4.6-13.4-4.6L16.6,32.4c0,0,5.2,5.8,5.2,12.6c0,0.2,0,0.5,0,0.7c-0.4,7.1-1.9,9-1.9,9s-2.4,3.7-3.4,7.1S15.4,68,15.4,68
	s0,0.1,0,0.3c0,1.3,0.3,7,4.6,13.7c4.9,7.6,13.6,8.8,13.6,8.8s9.3,0.5,15.2,2.7c5.9,2.1,10.8,6.1,10.8,6.1s4.9-4,10.8-6.1
	c5.9-2.2,15.2-2.7,15.2-2.7s8.7-1.2,13.6-8.8c4.3-6.7,4.6-12.5,4.6-13.7c0-0.2,0-0.3,0-0.3s-0.1-2.8-1.1-6.2c-1-3.4-3.4-7.1-3.4-7.1
	s-1.5-1.9-1.9-9c0-0.3,0-0.5,0-0.7c0-6.8,5.2-12.6,5.2-12.6L86.7,16.8z"/>
<g>
	<g>
		<path d="M43.6,41.8l-0.5,1.3c-0.8,2.1-1.8,4.1-7.3,4.1c-3.9,0-6.7-0.8-5.5-4.2l2.4-6.4c1.1-3,3.4-3.7,7.2-3.7
			c6.1,0,6.2,2.3,5.6,3.9L45,38h-5.6l0.7-1.8c0.2-0.6,0.1-0.9-0.6-0.9c-0.6,0-0.8,0.2-1.1,0.9l-2.8,7.5c-0.3,0.7-0.1,0.9,0.4,0.9
			c0.7,0,0.9-0.3,1.2-1l0.7-1.9L43.6,41.8L43.6,41.8z"/>
		<path d="M50.2,43.8l-1.3,3.1H43L50.6,33h9L57,46.9h-5.6l0.7-3.1C52.1,43.8,50.2,43.8,50.2,43.8z M52.8,41.2c0.3-1.1,1-4.6,1.2-5.4
			h-0.3c-0.3,0.6-1.7,4-2.4,5.4H52.8z"/>
		<path d="M65.4,42.5L65,43.7c-0.3,0.8-0.1,1,0.4,1s0.8-0.3,1-1c0.4-1-0.1-1.7-1.7-2.8c-2.1-1.4-3.6-2.4-2.7-4.9
			c0.8-2.2,2.7-3.2,6.4-3.2c5.8,0,6,2.2,5.2,4.2l-0.1,0.4h-5l0.4-1c0.3-0.7,0.2-1.1-0.5-1.1c-0.3,0-0.7,0.1-0.9,0.7
			c-0.4,1.1-0.1,1.3,1.5,2.4c3,2.1,3.9,3,3,5.4s-3,3.3-7.1,3.3c-4.9,0-6.3-1.5-5.2-4.1l0.2-0.5C59.9,42.5,65.4,42.5,65.4,42.5z"/>
		<path d="M77.7,33.1h5.6l-2,5.3H83l2-5.3h5.7L85.6,47h-5.7l2.2-5.9h-1.7L78.2,47h-5.6L77.7,33.1z"/>
	</g>
</g>
<g>
	<g>
		<path d="M56.3,82.3h-6.2c-0.2-0.8-0.3-1.4-0.4-2.2c-2,2.1-5.2,2.7-9,2.7c-9.5,0-12.9-4.9-12.9-13.3c0-9.5,5.6-13.6,15.3-13.6
			c12.3,0,13,6.1,13.1,7.6h-8c-0.1-1.1-0.5-3.7-5.3-3.7c-5.2,0-6.7,4-6.7,9.7c0,6.1,1.2,9.4,6.4,9.4c4.3,0,5.6-1.9,5.6-5.7v-1.5
			h-6.1v-4h14.2C56.3,67.7,56.3,82.3,56.3,82.3z"/>
		<path d="M91.3,69.1c0,9.5-4.5,13.7-15,13.7c-9.8,0-14.5-4.1-14.5-13.7c0-9.4,5.5-13.2,14.9-13.2C86.6,55.8,91.3,60,91.3,69.1z
			 M70.1,69c0,6.2,1.6,9.9,6.4,9.9c5,0,6.4-3.4,6.4-9.9c0-6.1-1.5-9.2-6.4-9.2C71.7,59.8,70.1,63.2,70.1,69z"/>
	</g>
</g>
<path id="Fill-1-Copy-5_1_" class="st3" d="M87.6,109.9C77.2,107.2,70.8,96.5,73.3,86C76,75.4,86.7,69,97.4,71.5
	c10.4,2.7,16.8,13.4,14.3,23.9C109,106,98.3,112.4,87.6,109.9z"/>
<path id="Fill-1-Copy-5" class="st4" d="M88.2,107.6c-9.1-2.4-14.8-11.8-12.6-21.1c2.4-9.3,11.8-15,21.2-12.7
	c9.1,2.4,14.8,11.8,12.6,21.1C107,104.2,97.6,109.8,88.2,107.6z"/>
<g class="st5">
	<g class="st6">
		<path class="st7" d="M102.2,94.1l-0.8,2c-1.3,3.4-2.9,6.5-11.7,6.5c-6.3,0-10.7-1.2-8.7-6.6l3.8-10.2c1.7-4.8,5.4-5.9,11.5-5.9
			c9.8,0,9.9,3.7,8.9,6.2l-0.7,2h-8.9l1-2.8c0.3-0.9,0.2-1.4-0.9-1.4c-0.9,0-1.3,0.3-1.7,1.4l-4.4,12c-0.4,1.1-0.2,1.5,0.7,1.5
			c1,0,1.5-0.4,2-1.6l1.1-3L102.2,94.1L102.2,94.1z"/>
	</g>
</g>
<g class="st5">
	<g class="st6">
		<path d="M101.6,93.3l-0.8,2c-1.3,3.4-2.9,6.5-11.7,6.5c-6.3,0-10.7-1.2-8.7-6.6L84.1,85c1.7-4.8,5.4-5.9,11.5-5.9
			c9.8,0,9.9,3.7,8.9,6.2l-0.7,2h-8.9l1-2.8c0.3-0.9,0.2-1.4-0.9-1.4c-0.9,0-1.3,0.3-1.7,1.4l-4.4,12c-0.4,1.1-0.2,1.5,0.7,1.5
			c1,0,1.5-0.4,2-1.6l1.1-3L101.6,93.3L101.6,93.3z"/>
	</g>
</g>
<g>
	<g>
		<path class="st8" d="M90.5,95.7l-0.7,2c-0.5,1.4-0.2,1.8,0.7,1.8c0.9,0,1.3-0.5,1.7-1.7c0.6-1.8-0.2-2.9-2.9-4.7
			c-3.6-2.4-6.2-4.1-4.6-8.3c1.4-3.8,4.6-5.4,11-5.4c9.9,0,10.2,3.7,8.9,7.2l-0.2,0.6h-8.6l0.7-1.7c0.5-1.3,0.4-1.9-0.8-1.9
			c-0.6,0-1.2,0.1-1.6,1.1c-0.7,1.8-0.1,2.2,2.5,4.1c5.1,3.6,6.7,5.1,5.2,9.2c-1.5,4.1-5.1,5.6-12,5.6c-8.3,0-10.7-2.6-8.9-7
			l0.4-0.9H90.5z"/>
	</g>
</g>
<g>
	<g>
		<path class="st3" d="M90,94.6l-0.7,2C88.7,98,89,98.3,90,98.3c0.9,0,1.3-0.5,1.7-1.7c0.6-1.8-0.2-2.9-2.9-4.7
			c-3.6-2.4-6.2-4.1-4.6-8.3c1.4-3.8,4.6-5.4,11-5.4c9.9,0,10.2,3.7,8.9,7.2l-0.2,0.6h-8.6l0.7-1.7c0.5-1.3,0.4-1.9-0.8-1.9
			c-0.6,0-1.2,0.1-1.6,1.1c-0.7,1.8-0.1,2.2,2.5,4.1c5.1,3.6,6.7,5.1,5.2,9.2c-1.5,4.1-5.1,5.6-12,5.6c-8.3,0-10.7-2.6-8.9-7
			l0.4-0.9H90z"/>
	</g>
</g>
</svg>
