<?xml version="1.0" encoding="utf-8"?>
<!-- Generator: Adobe Illustrator 22.1.0, SVG Export Plug-In . SVG Version: 6.00 Build 0)  -->
<svg version="1.1" id="图层_1" xmlns="http://www.w3.org/2000/svg" xmlns:xlink="http://www.w3.org/1999/xlink" x="0px" y="0px"
	 viewBox="0 0 64 64" style="enable-background:new 0 0 64 64;" xml:space="preserve">
<style type="text/css">
	.st0{display:none;fill:#EDF4F7;}
	.st1{fill:#FCFCFC;}
	.st2{fill:#E1E0E2;}
	.st3{fill:#F6F7F8;}
	.st4{fill:#E9EAEC;}
	.st5{fill:#E5E6E8;}
	.st6{fill:#EEEFF2;}
	.st7{fill:#2986F7;}
	.st8{fill:#DD1C25;}
	.st9{fill:#C11D2B;}
	.st10{fill:#CE1C27;}
	.st11{fill:#2579DF;}
	.st12{fill:#2881ED;}
	.st13{fill:#CD1C28;}
	.st14{fill:#277FEA;}
	.st15{fill:#226FCC;}
	.st16{fill:#FDFDFD;}
	.st17{fill:#267DE7;}
	.st18{fill:#3368A7;}
	.st19{fill:#FCFAFB;}
	.st20{fill:#FCFAFA;}
	.st21{fill:#FAF7F7;}
	.st22{fill:#962D36;}
	.st23{fill:#85363D;}
	.st24{fill:#912730;}
	.st25{fill:#DA1F28;}
	.st26{fill:#8C2830;}
	.st27{fill:#2373D3;}
	.st28{fill:#3A5C83;}
	.st29{fill:#4A6D98;}
	.st30{fill:#316AAC;}
	.st31{fill:#3B689E;}
	.st32{fill:#415E83;}
	.st33{fill:#416086;}
	.st34{fill:#3E6BA1;}
	.st35{fill:#2578DB;}
	.st36{fill:#446083;}
	.st37{fill:#3B70AD;}
	.st38{fill:#9A333B;}
	.st39{fill:#D92831;}
	.st40{fill:#924248;}
	.st41{fill:#C4313B;}
</style>
<g>
	<path class="st0" d="M64,32c0,10.3,0,20.6,0,30.8c0,0.8-0.2,0.9-0.9,0.9c-20.6,0-41.3,0-61.9,0c-0.8,0-0.9-0.2-0.9-0.9
		c0-20.6,0-41.3,0-61.9C0.2,0.2,0.4,0,1.2,0c20.6,0,41.3,0,61.9,0C63.8,0,64,0.2,64,0.9C64,11.3,64,21.6,64,32z"/>
	<path class="st1" d="M11.2,10.4c1.8-1.8,3.5-3.5,5.3-5.3C16.8,4.8,17,4.8,17.4,5c4.6,2.7,9.2,2.6,13.8,0.2C31.6,5,31.9,4.6,32.4,5
		c4.5,2.9,9.2,2.6,13.8,0.3c1-0.5,1.5-0.4,2.2,0.4c1.9,2,3.9,3.9,5.9,5.8c-0.3,1,0,1.7,0.6,2.6c0.6,0.8-0.1,1.6-0.6,2.3
		c-2,2.6-2.9,5.6-2.6,8.8c0.2,2.7,1.4,5.2,2.8,7.5c0.4,1.6,1.1,3.1,1.1,4.8c-0.1,0.4-0.3,0.6-0.7,0.6c-0.4-0.2-0.5-0.5-0.6-0.9
		c-0.3-1.6-1-3.1-1.5-4.6C52,30.7,51,29,50.4,27c-0.2-0.6-0.3-1.3-0.2-2c0.1-0.8-0.2-1.4-0.9-1.7c-0.4-0.9,0.6-0.8,0.8-1.2
		c0.6-1.2,0.5-2.6,1.2-3.7c0.4-0.9,0.8-1.9,1.4-2.7c0.5-0.7,0.4-1.2-0.2-1.8c-0.8-0.8-1.6-1.7-2.5-2.5c-0.9-0.9-1.8-1.7-2.6-2.6
		c-0.6-0.7-1.3-0.8-2.2-0.4c-4.2,1.9-8.4,2.2-12.7,0.2c-0.7-0.3-1.3-0.2-2,0.1c-4.1,1.7-8.2,2-12.3-0.1c-0.8-0.4-1.4-0.3-1.9,0.3
		c-1.1,1.2-2.4,2.1-3.6,3.3c-0.8,0.5-1.3,1.1-2.1,1.6c-0.5,0.4-0.7,0.9-0.3,1.4c0.6,0.8,0.9,1.8,1.3,2.7c0.2,0.3,0.3,0.7,0.3,1.1
		c-0.2,0.8-0.7,0.5-0.9,0.1c-0.7-1.5-1.6-2.8-2.7-4.1c-0.4-0.5-0.2-1.1,0.2-1.5C9.5,12.6,10.2,11.4,11.2,10.4z"/>
	<path class="st2" d="M55.8,47.7c-1.1,2.3-3,3.8-5.2,4.9c-3.1,1.6-6.5,1.9-9.8,2.5c-1.1,0.2-2.2,0.3-3.3,0.5
		c-2.3,0.4-4.4,1.2-5.8,3.3c-2.4-2.8-5.6-3.4-8.9-3.8c-3.1-0.4-6.3-0.6-9.1-2.1c-1.5-0.8-3-1.8-4-3.2c0-1,0.3-1.8,1.4-2.1
		c0.8,0.4,1.2,1.3,2,1.9c2.6,2,5.5,2.6,8.7,2.9c2.3,0.2,4.6,0.3,6.8,1.3c1,0.4,1.8,1.1,2.7,1.7c0.4,0.3,0.7,0.5,1.1,0.1
		c2.6-2.7,6-2.9,9.3-3.4c1.6-0.2,3.3-0.4,4.9-0.9c2.6-0.8,4.7-2.2,6.3-4.3c0.3-0.4,0.5-0.8,1-0.9c0,0,0.1,0,0.1,0
		C54.4,46.8,55.3,47,55.8,47.7z"/>
	<path class="st3" d="M50.4,22.4c-0.2,0.6-1.2,0-1.2,0.8c-0.6,0.6-1.4,0.4-2.2,0.4c-10.2,0-20.5,0-30.7,0c-0.4,0-0.8,0-1.1,0
		c-1.8,0-2,0.2-2.3,2c-0.1,0.4-0.1,0.8-0.2,1.1c-0.4,2.6-1.5,5-2.6,7.3c-0.4,0.9-0.5,1.9-1.1,2.7c-1-0.1-0.7-0.8-0.5-1.3
		c0.5-2,1.3-3.9,2-5.8c0.5-1.5,0.5-3,0.8-4.5c0.1-0.8-0.5-0.6-0.8-0.9c0.2-3-1.3-5.5-2.7-8c-0.9-1.7-1-1.7,0.4-3c1-1,1.9-2.1,3-2.8
		c-0.6,1.2-1.2,2.3-2.2,3.2c-0.7,0.7-0.7,1.2,0,1.9c1,1,1.7,2.2,2.2,3.5c0.1,0.3,0.3,0.9,0.6,0c0.7,0.2,0.9,0.9,1,1.5
		c0.2,1.2,0.8,1.5,1.9,1.5c0.9-0.1,1.8,0,2.7,0c10.3,0,20.6,0,30.9,0C49,22,49.8,21.9,50.4,22.4z"/>
	<path class="st4" d="M55.8,47.7c-0.5-0.2-1-0.8-1.6-0.1c-0.2-0.5,0.4-1-0.2-1.4c-0.3-0.3-0.2-0.7,0-1.1c1.1-2.4,1.3-5,1.3-7.6
		c0-1.2-0.5-2.3-0.8-3.5c-0.1-0.4-0.3-0.9-0.2-1.3c-0.7-0.9-0.9-2-1.2-3.1c-0.3-0.9,0-1.7,1-2c1.3,2.7,2.6,5.5,3.5,8.4
		C58.8,40.1,57.9,44,55.8,47.7z"/>
	<path class="st3" d="M54.1,27.5c-1.5,1.4-0.2,2.8,0,4.2c0,0.3,0.3,0.6,0.3,0.9c-0.4-0.2-0.6-0.5-0.8-0.8c-3.2-5.5-3-11.1,0.9-16.2
		c0.5-0.6,0.7-1.2,0.1-1.8c-0.7-0.8-1.5-1.5-0.2-2.4c0.7,0.7,1.4,1.4,2.2,2c0.7,0.6,0.6,1,0.1,1.6c-2.2,2.6-3.3,5.6-3.3,9
		C53.3,25.3,53.8,26.4,54.1,27.5z"/>
	<path class="st5" d="M11,47.7c-0.7,0.5-0.9,1.4-1.3,2.1c-2.2-2.1-2.8-4.9-3.4-7.7c-0.4-1.9-0.5-3.8,0.1-5.6
		c0.3,0.1,0.5,0.4,0.8,0.6c1.7,1,1.8,1.2,1.4,3.2c0,0.3,0.2-0.1,0.2,0c0.3,0.2,0.4,0.5,0.4,0.8c0.1,1.3,0.7,2.6,0.9,3.9
		c-0.2,0.6,0.1,1.1,0.4,1.7C10.7,46.9,11.2,47.2,11,47.7z"/>
	<path class="st6" d="M8.7,40.2c0,0.2-0.1,0.4-0.1,0.6c-0.1,0-0.1,0-0.2,0c0-0.3,0-0.6,0-0.9c0.2-1.3,0-2.3-1.5-2.6
		c-0.5-0.1-0.5-0.5-0.5-0.9c0-0.9,0.4-1.6,0.8-2.4c1.5-3.1,2.8-6.3,3.3-9.8c0.4,0.2,0.7-0.6,1.1-0.2c0.3,0.4,0,0.8,0,1.2
		c0.1,3.7-1.9,6.9-2.8,10.4c-0.1,0.5-0.2,0.8,0.2,1.1C9.3,37.9,9.2,39.1,8.7,40.2z"/>
	<path class="st7" d="M12.3,27c-0.1-0.9,0.3-1.7,0.3-2.6c0-1.1,0.9-1.2,1.8-1.2c11.1,0,22.2,0,33.3,0c0.5,0,1,0,1.5-0.1
		c1,0,1.3,0.4,1.2,1.3c-0.1,0.8,0,1.7,0.2,2.5c-0.1,2-0.6,2.4-2.6,1.7c-0.9-0.3-1.7-0.4-2.6,0.1c-0.8,0.4-1.7-0.2-2.5,0.3
		c-2.6-0.5-5.2-0.5-7.6,0.8c-1.3-0.1-2.4,0.9-3.7,0.6c-1-0.2-1.9,0.3-2.9,0.1c-0.3-0.3-0.2-0.9-0.7-1.1c-2.2-1-4.5-0.7-6.8-0.5
		c-0.5,0-1,0.3-1.5,0.3c-1.9,0.1-3.7-0.1-5.6,0.2c-0.9,0.1-1.4-0.3-1.6-1.2C12.6,27.9,12.6,27.4,12.3,27z"/>
	<path class="st8" d="M12.5,12.2c1.4-1.3,2.8-2.6,4.2-3.9c0.4-0.4,0.7-0.4,1.2-0.1c4.2,2.4,8.4,2.1,12.7,0.3
		c0.6-0.3,1.2-0.4,1.8-0.1c4.3,2,8.6,1.7,12.8-0.2c0.9-0.4,1.4-0.3,2.1,0.4c0.9,1,2,2,2.9,3c0.3,0.6,1,1,1.4,1.7
		c0.4,0.6,0.6,1.2,0.3,1.9c-0.4,0.7-1.1,0.6-1.7,0.6c-0.7-0.1-1.4-0.2-2.1,0.3c-0.9,0.6-1.5,0.4-1.9-0.6c-0.1-0.2-0.3-0.3-0.4-0.5
		c-0.1-0.1-0.3-0.3-0.4-0.4c-0.8-1-1.9-1.1-3.1-1.3c-1-0.1-1.4,0.3-1.4,1.3c0,0.6,0.1,1.3-0.2,1.9c-0.6,0.7-1.3,0.4-1.9,0
		c-0.8-0.5-0.6-1.6-1.2-2.3c-1.4-1.3-1.8-1.2-2.4,0.6c-0.6,1.7-1.2,3.4-1.9,5.1c-0.3,0.5-0.8,0.9-1.4,1.1c-0.6,0-1.1,0-1.3-0.7
		c0.7-1.7,1-3.6,1.5-5.3c0.1-0.4,0.2-0.9,0-1.4c-0.7-0.4-0.8,0.2-1,0.6c-0.2,0.6-0.2,1.2-0.4,1.7c-0.2,0.5-0.2,1.1-0.8,1.1
		c-0.6,0-0.7-0.6-0.8-1.1c-0.1-0.4-0.2-0.8-0.3-1.2c-0.2-0.5-0.1-1.2-0.8-1.3c-0.8,0-0.8,0.8-1,1.3c-0.2,0.6-0.3,1.2-0.5,1.7
		c-0.2,0.4-0.3,0.9-0.8,0.9c-0.6,0-0.7-0.6-0.8-1c-0.2-0.7-0.2-1.5-0.5-2.2c-0.1-0.3-0.2-0.6-0.6-0.6c-0.4,0.1-0.3,0.5-0.2,0.8
		c0.2,1,0.5,2.1,0.7,3.1c0.1,0.5,0.3,1,0,1.5c-0.9,0.5-1.5,0.1-1.9-0.7c-0.1-0.1-0.2-0.3-0.4-0.4c-0.5-0.6-1.1-1.2-1.8-1.5
		c-0.4-0.2-0.8-0.4-0.9-1c0.2-0.9,0.8-1,1.6-0.9c0.4,0.1,1.1,0.3,0.6-0.6c-2-1-3.3-0.3-4.1,2c-0.5,0.5-1.1,0.2-1.7,0.2
		c-1.2-0.1-2.4,0.1-3.5-0.1c-1.5-0.3-1.8-0.8-0.9-2.1C11.7,13,12.1,12.6,12.5,12.2z"/>
	<path class="st9" d="M30.6,20.1c0.3,0.4,0.8,0.4,1.3,0.5c2.8,0.1,5.6-0.2,8.3,0c1.1,0.1,2.1-0.2,2.9-0.9c0.4-0.4,0.9-0.7,1.5-0.6
		c2,0.3,3.9-0.7,5.9-0.8c0.3,0,0.6-0.2,1,0c-0.5,1.3-0.8,2.6-1,4c-0.5,0-0.9,0.1-1.4,0.1c-11.6,0-23.2,0-34.9,0
		c-1.1,0-1.7-0.2-1.8-1.5c0-0.7-0.2-1.4-0.6-2c-0.1-0.3-0.2-0.6-0.2-0.9c0.2-0.1,0.4-0.1,0.6,0c1.6,1,3.4,1.1,5.2,0.9
		c0.5,0,0.7,0.4,1.1,0.6c0.7,0.3,1.5,0.2,2.2,0.1c0.7-0.1,1.1-0.5,1.4-1.1c0.1-0.3,0.1-0.8,0.4-1c0.3,0.8,0.8,1.2,1.7,1
		c0.7,0.2,0.7,1.1,1.3,1.4c1.4,1.1,2.6,0.4,3.8-0.3c0.3-0.1,0.6-0.1,0.9,0C30.4,19.8,30.5,20,30.6,20.1z"/>
	<path class="st10" d="M51.5,18.4c-2.2,0.5-4.4,1.4-6.7,1c-0.5-0.1-0.9,0.1-1.3,0.5c-1.1,1-2.3,1.2-3.8,1.1c-1.9-0.2-3.8,0-5.6,0.2
		c-0.8,0.1-1.5-0.2-2.2-0.5c0.3-0.4,0.9-0.5,1.1-1.1c0.4-0.1,0.7,0,1.1,0.1c0.3,0,0.5,0,0.6-0.3c0.6-1.1,1.5-1.2,2.6-1
		c0.7,0.2,0.8,0.8,1.2,1.2c0.3,0.2,0.6,0.3,0.9,0.1c0.3-0.4,0-0.8-0.2-1.1c-0.1-0.1-0.1-0.2-0.1-0.3c0-0.7-0.7-1.4-0.2-2.1
		c0.6,0.2,1.1,0.7,1.8,0.3c0.5,0.4,0.3,1,0.4,1.5c0,0.6-0.1,1.2,0.4,1.7c0.8,0.5,1-0.1,1-0.7c0-0.9,0.4-1.4,1.3-1.5
		c1.4-0.2,2.2-0.8,2.1-2.3c0-0.2,0.1-0.4,0.3-0.5c1.1,1,1.3,1.1,2.8,0.6c0.7-0.2,1.2,0.2,1.9,0.2c1.1,0,1.4-0.5,1.1-1.5
		c-0.3-0.9-1.2-1.4-1.4-2.3c0.9,0.9,1.8,1.8,2.7,2.6c0.6,0.5,0.5,1,0.1,1.6C52.4,16.5,52,17.5,51.5,18.4z"/>
	<path class="st11" d="M53,32.4c0.9,1.8,1.3,3.7,1.8,5.6c0.6,1.1,0.6,2.2,0,3.3c-2.2,0.9-4.5,0.2-6.7,0.4c-0.4,0-0.8,0-1-0.4
		c-0.3-0.6,0.1-1.2-0.1-1.7c0-0.3,0.1-0.5,0.2-0.8c0.6-1.3,0.3-2.7,0.3-4c0.6-0.5,1.2-0.4,1.7-0.1c0.7,0.4,1.4,0.3,2.1,0.1
		c0.7-0.1,1-0.5,1.1-1.2C52.5,33.2,52.3,32.6,53,32.4z"/>
	<path class="st12" d="M53,32.4c-0.1,0.2-0.2,0.4-0.2,0.6c-0.2,2.2-1.7,3.1-3.6,2c-0.5-0.3-1,0.1-1.4-0.3c-0.2,0-0.4-0.1-0.5-0.2
		c-0.7-2.3-2.4-3.9-4.1-5.5c0-0.1,0.1-0.2,0.1-0.2c1.7,0.2,3.2-1.1,5-0.4c1.8,0.7,1.8,0.6,2.2-1.2c0-0.1,0.2-0.1,0.3-0.2
		C51.4,28.8,52.2,30.6,53,32.4z"/>
	<path class="st3" d="M54.6,41.3c0.5-1.1,0.1-2.2,0.2-3.3c0.2-0.1,0.4-0.3,0.5-0.5c0.5,1.3,0.4,2.7,0.1,4.1
		c-0.3,1.6-0.9,3.1-1.4,4.6c-1.5,1.6-2.8,3.3-4.8,4.4c-2.5,1.2-5.1,1.6-7.8,2c-2.2,0.3-4.4,0.4-6.5,1.5c-0.9,0.5-1.7,1.1-2.4,1.8
		c-0.4,0.4-0.7,0.6-1.2,0.1c-2.6-2.5-6-2.9-9.4-3.1c-3.4-0.2-6.6-1-9.3-3.2c-0.7-0.5-1.1-1.2-1.6-1.9c-0.4-0.8-1.5-1.4-1.1-2.5
		c0.6,0.1,0.8,0.7,1,1.1c1.9,3.2,4.8,4.6,8.3,5.2c2.4,0.4,4.9,0.5,7.3,1c1.5,0.3,2.9,1,4.2,1.8c0.5,0.3,0.9,0.6,1.5,0.2
		c2.7-2.2,6-2.6,9.3-3c2-0.2,4-0.6,5.9-1.3c2.8-1.1,4.7-3.2,6.1-5.9C54.1,43.4,54,42.2,54.6,41.3z"/>
	<path class="st13" d="M17.4,19.1c-1.7,0.8-3.4,0.3-5-0.4c-0.3-0.1-0.5-0.5-0.8-0.5c-0.7-1-0.9-2.3-1.8-3.1
		c-0.2-0.2-0.1-0.5,0.2-0.7c0.9-0.7,1.7-1.4,2.5-2.1c-0.1,0.7-0.6,1.3-1.1,1.8c-0.7,0.8-0.4,1,0.5,1.2c1.2,0.3,2.4,0.1,3.7,0.1
		c0.6,0,1.3,0.7,1.9-0.1c0.9,0.6,1.7,1.3,2.7,1.9c0.4,0.2,0.8,0.6,0.6,1.1c-0.2,0.5-0.6,0.6-1.1,0.7C18.8,19,18.1,18.7,17.4,19.1z"
		/>
	<path class="st11" d="M8.7,40.2c0.1-1.2,0.1-2.3,0.2-3.5c0.3-0.9,0.6-1.9,0.9-2.8c0.6-0.3,0.8,0.2,0.9,0.5c0.2,0.9,0.8,1.2,1.7,1.2
		c0.2,0,0,0,0.1,0c2.4,0.2,2.4,0.2,2.8,2.5c0.2,1.3,0.9,2.5,1.2,3.8c-0.2,1.9-0.6,2.2-2.4,1.9c-0.6-0.1-1.3-0.1-1.9,0
		C10.5,44,9.9,43.6,9.4,42c-0.1-0.3-0.2-0.6-0.5-0.9C8.9,40.8,8.8,40.5,8.7,40.2z"/>
	<path class="st14" d="M15,38.3c-0.1-0.1-0.1-0.1-0.2-0.2c-0.2-0.5,0.2-1.4-0.3-1.6c-0.7-0.3-1.5-0.4-2.3-0.4c-1.2,0-2-0.3-2-1.7
		c0-0.3-0.3-0.4-0.6-0.4c1.1-2.2,2.1-4.5,2.5-6.9c0.8,0.1,0.7,0.7,0.7,1.2c0,0.6,0.2,1.2,0.9,1c2-0.4,4-0.1,6-0.2
		c-0.1,0.6-0.6,0.7-0.9,0.9c-2.4,1.6-3.6,3.8-3.7,6.7C15.4,37.2,15.5,37.8,15,38.3z"/>
	<path class="st15" d="M9,41.1c0.5,0,0.7,0.4,0.7,0.8c0.3,1.3,1.1,1.8,2.3,1.5c0.5-0.1,1.1-0.1,1.6-0.1c2.1,0.3,2.1,0.3,2.6-1.6
		c0.2,0,0.4,0.1,0.6,0.2c1.3,1.5,3.1,2.3,4.9,2.8c1.5,0.3,3,0.2,4.5-0.1c1-0.3,2.2-0.2,2.8-1.3c0.2-0.4,0.2-0.9,0.5-1.2
		c0.8-0.9,1.7-1.6,3.1-1.3c0.3,0.1,0.5,0.3,0.7,0.6c1.3,1.8,3,2.8,5.1,3.4c0.9,0.4,1.9-0.1,2.7,0.4c0.2,0.2,0,0.7,0.6,0.7
		c2.9,0.1,5.7,0.3,8.6-0.2c1-0.2,2.1-0.4,2.9-1.2c0.2-0.2,0.5-0.4,0.8-0.2c-1.5,3.5-4.2,5.6-7.9,6.6c-2.6,0.7-5.4,0.7-8,1.3
		c-2.1,0.4-4.1,1-5.7,2.6c-0.4,0.4-0.8,0.4-1.2,0c-2.1-1.9-4.8-2.3-7.5-2.7c-1.6-0.2-3.3-0.3-4.9-0.6c-4-0.7-6.9-2.9-8.7-6.5
		C9.7,43.8,9,42.5,9,41.1z"/>
	<path class="st16" d="M38,45.1c-2.3-0.6-4.1-2-5.4-4c-1.1-1.3-1.1-3-1.1-4.6c0.1-2.1,0.7-4,1.9-5.7c0.4-0.6,0.9-1.2,1.7-1
		c2.5-1.5,5.2-1.6,7.9-0.8c2.3,1.1,3.7,3,4.3,5.4c0.5,1.6,0.5,3.1,0,4.7c-0.1,0.1-0.1,0.3-0.2,0.4c-0.3,2.7-2,4.3-4.3,5.3
		c-0.5,0.2-1,0.4-1.5,0.7c-0.1,0-0.3,0-0.4-0.1C40.1,45.1,39,45.5,38,45.1z"/>
	<path class="st16" d="M21.4,45.1c-2.1-0.6-3.9-1.4-5.2-3.3c-0.6-1.1-1-2.3-1.2-3.6c-0.2-2.8,0.4-5.4,2.6-7.5c0.7-0.7,1.6-1,2.4-1.6
		c2.9-0.8,5.8-1,8.6,0.2c0,1,0.9,2.1-0.2,3.1c-0.9,0.1-1.7-0.6-2.6-0.6c-1-0.2-2.1-0.2-3.1,0c-2,0.5-3.1,1.8-3.5,3.8
		c-0.2,1.1-0.2,2.2,0.2,3.3c0.7,2.3,3.3,3.5,5.4,2.8c0.9-0.3,0.7-1.1,0.7-1.7c0-0.7-0.3-1-1-1.1c-0.8-0.1-1.8,0.2-2.2-0.9
		c-0.3-2.2,0.1-2.7,2.3-2.7c1.1,0,2.3,0,3.4,0c0.6,0,1.2,0.1,1.4,0.8c0.1,2.4,0.2,4.8-0.1,7.2c-0.1,0.8-0.7,1-1.4,1.2
		c-0.5,0.2-1,0.4-1.5,0.5C24.7,45.3,23.1,45.4,21.4,45.1z"/>
	<path class="st17" d="M29.1,36.2c-0.2-0.6-0.6-0.5-1-0.5c-1.4,0-2.7,0.1-4.1,0c-1.2-0.1-1.7,0.3-1.6,1.5c0,0.3,0,0.7,0,1
		c-0.7,0.7-1.7,0.7-2.6,0.7c-0.7,0-0.9-0.6-0.9-1.1c-0.1-0.7-0.1-1.4,0-2.1c0.5-2.3,1.9-3.5,4.1-4.2c0.9,0.1,1.9-0.1,2.8,0.1
		c0.8-0.1,1.6,0.3,2.3,0.7c0.6-0.2,0.6-0.2,0.6-0.6c0.1-0.4-0.2-0.8,0.2-1.2c1.3-0.4,2.6-0.4,3.9-0.3c0.3,0,0.7-0.2,1-0.4
		c0.5-0.2,0.9-0.5,1.4-0.1c-2.2,1.4-2.9,3.7-3.3,6.1c-0.3,1.8,0.2,3.5,0.7,5.2c-1.2,0-2.1,0.7-3,1.3c-0.4-0.4-0.2-0.9-0.3-1.4
		C29.2,39.3,29.5,37.8,29.1,36.2z"/>
	<path class="st18" d="M28.8,30.6c0,0.5,0,1-0.1,1.5c-0.1,0.5-0.3,0.7-0.7,0.2c1-0.9,0.2-2,0.5-3C29,29.7,28.7,30.2,28.8,30.6z"/>
	<path class="st19" d="M25.3,20.2c-0.6-0.3-0.8-1-1.1-1.5c-0.4-1.5-0.8-3-1.1-4.5c-0.1-0.5-0.4-1,0.4-1.2c0.6-0.1,1,0.2,1.2,0.8
		c0.2,0.9,0.4,1.9,0.6,2.8c0,0.2,0,0.6,0.4,0.5c0.1,0,0.3-0.3,0.4-0.5c0.3-0.9,0.6-1.9,0.8-2.8c0.1-0.6,0.4-1,1.1-0.9
		c0.6,0,0.9,0.4,1,1c0.2,0.7,0.3,1.4,0.5,2.1c0.1,0.4,0.1,0.9,0.5,0.9c0.6,0.1,0.4-0.5,0.5-0.8c0.2-0.7,0.3-1.5,0.5-2.2
		c0.3-1,0.8-1.2,1.7-0.5c-0.2,2-1,3.8-1.4,5.7c-0.1,0.4-0.2,0.8-0.7,1c-0.3,0-0.7,0-1,0c-0.6,0.1-0.7-0.4-0.9-0.8
		c-0.3-0.7-0.4-1.5-0.6-2.3c-0.8,0.6-0.6,1.6-0.9,2.3C26.6,19.9,26.1,20.4,25.3,20.2z"/>
	<path class="st20" d="M38.2,19.9c-0.6-0.2-0.3-1.1-1-1.3c-1.1-0.2-2.2-0.5-2.6,1c-0.1,0.3-0.4,0.3-0.8,0.3c-0.3-0.1-0.7,0-1-0.3
		c0.7-1.8,1.3-3.5,2-5.3c0.2-0.6,0.3-1.4,1.3-1.4c1-0.1,1.1,0.7,1.5,1.3c0.6,1.4,1.2,2.8,1.6,4.3l0,0C39.8,19.9,39.7,20.1,38.2,19.9
		z"/>
	<path class="st21" d="M41,19.9c-0.8-0.6-0.4-1.4-0.4-2.1c-0.1-0.5,0-1-0.1-1.5c0-0.8,0-1.7,0.1-2.5c0-0.4,0.1-0.7,0.5-0.9
		c1.2-0.5,3.7,0.3,4.5,1.4c0.4,2.2-0.1,2.8-2.1,3.2c-0.8,0.1-1.2,0.5-1.1,1.3C42.5,19.7,42.1,20.3,41,19.9z"/>
	<path class="st19" d="M17.4,19.1c0.1-0.4,0.2-0.9,0.8-0.6c0.2,0.1,0.4,0.2,0.6,0.2c0.6,0,1.4,0.3,1.6-0.5c0.2-0.8-0.6-1-1.2-1.2
		c-0.9-0.3-1.5-0.9-1.9-1.7c0.1-2.2,2.3-3.1,4.5-1.9c0.2,1.2,0.1,1.3-1,1c-0.8-0.2-1.4-0.1-1.6,0.8c0.8,0.9,2.3,1,2.8,2.2
		c0.3,1.5-0.3,2.5-1.7,2.6c-0.8,0.1-1.6,0.2-2.4-0.1C17.8,19.7,17.5,19.4,17.4,19.1z"/>
	<path class="st9" d="M41,19.9c1,0.1,1.2-0.4,1.2-1.3c0-0.5-0.1-1.1,0.7-1.2c2.4-0.4,2.6-0.6,2.7-3.1c0.1,0.1,0.2,0.2,0.3,0.3
		c0,2.5,0,2.5-2.4,3.1c-0.7,0.2-0.9,0.5-0.9,1.2C42.6,20.2,42.3,20.3,41,19.9z"/>
	<path class="st22" d="M30.3,19.9c0.8-0.9,0.7-2,1.1-3c0.4-1.2,0.7-2.4,1-3.6c0.2,0.2,0.1,0.4,0.1,0.7c-0.4,1.7-0.8,3.4-1.2,5.2
		c-0.1,0.4-0.3,0.8-0.7,1C30.5,20.1,30.4,20,30.3,19.9z"/>
	<path class="st23" d="M18.1,19.9c0.5,0,1,0,1.5,0c1.8,0,2.5-0.7,2.5-2.6c0.1,0.1,0.2,0.2,0.3,0.3C22.4,20,20.5,20.9,18.1,19.9z"/>
	<path class="st9" d="M39.2,18.4c-0.7-1.4-1.2-2.8-1.6-4.3c0.9,0.4,0.5,1.5,1.1,2C38.8,16.9,39.4,17.6,39.2,18.4z"/>
	<path class="st24" d="M19.3,15.1c-0.2-0.9,0.3-1.4,1.6-1c1,0.3,1.1,0,1-0.8c0.4,1.1,0.2,1.5-0.8,1.2C20.3,14.3,19.8,14.5,19.3,15.1
		z"/>
	<path class="st25" d="M28,16.3c0.5,1.2,0.3,2.6,1.3,3.6c-1.4,1.4-3.2,1.5-4.1,0.3c0.4-0.4,1.5-0.2,1.3-1.3c0.5-0.4,0.4-1,0.6-1.5
		C27.3,17,27.3,16.4,28,16.3z"/>
	<path class="st26" d="M33.9,19.9c0.3-0.1,0.6-0.3,0.8-0.6c0.6-1.1,1.3-1.3,2.6-0.7c-1,0-2.2-0.2-2.5,1.3
		C34.6,20.2,34.2,20.3,33.9,19.9z"/>
	<path class="st9" d="M38.2,19.9c1.3,0.1,1.2-0.7,1-1.5c0.6,0.4,0.8,1,0.5,1.5C39.3,20.4,38.7,20.3,38.2,19.9z"/>
	<path class="st27" d="M41.4,45.4c0.1,0,0.1,0,0.1,0c0.5-0.6,1.3-0.4,1.9-0.8c1.2-0.7,2.2-1.6,3-2.8c0.2-0.3,0.2-0.8,0.7-0.7
		c0.5,0.5,1.2,0.2,1.8,0.2c1.3,0.1,2.6-0.2,3.9,0.2c0.5,0.2,0.8-0.3,1.2-0.6c0.7-0.6,0.5,0.1,0.5,0.4c0,1.1-0.2,2.1-0.8,3
		c-2.1,2.2-4.8,2-7.5,2c-1.7,0-3.4,0.1-5.1,0c-1.1-0.1-0.1-0.6-0.1-0.9C41.1,45.3,41.3,45.3,41.4,45.4z"/>
	<path class="st28" d="M47.2,41.1c-1.3,2.2-3,3.8-5.6,4.3c0.1-0.4,0.4-0.5,0.7-0.6c2.6-0.9,4.2-2.7,5-5.3
		C47.7,40,47.2,40.5,47.2,41.1z"/>
	<path class="st29" d="M47.4,39.1c0.3-1.6,0.3-3.1,0-4.7c0.1,0.1,0.2,0.2,0.3,0.3C47.9,36.2,48.2,37.6,47.4,39.1z"/>
	<path class="st30" d="M29.1,36.2c0.7-0.2,0.4,0.3,0.4,0.6c0,1.8,0,3.7,0,5.5c0,0.4,0,0.9-0.3,1.3c-0.1,0.1-0.2,0.1-0.2,0
		C29.1,41.1,29.1,38.7,29.1,36.2z"/>
	<path class="st31" d="M21.4,45.1c1.7,0,3.4,0.1,5.1-0.2c0.1,0,0.1,0.1,0.1,0.1c0,0.1-0.1,0.1-0.1,0.1
		C24.8,45.4,23.1,45.7,21.4,45.1z"/>
	<path class="st32" d="M26.5,45.1c0-0.1,0-0.1,0-0.2c0.9-0.4,1.9-0.5,2.6-1.3c0.1,0,0.2,0,0.2,0C28.8,45,27.5,44.7,26.5,45.1z"/>
	<path class="st31" d="M41.4,45.4c-0.1,0-0.2,0-0.3,0.1c-1-0.2-2.1,0.3-3.1-0.3C39.1,45.2,40.3,44.8,41.4,45.4z"/>
	<path class="st11" d="M39,31.7c3.5-0.1,5.3,1.9,5,5.6c-0.1,1-0.2,2-0.8,2.9c-0.9,1.5-2.2,2.1-3.9,2c-1.7-0.1-2.7-1.2-3.3-2.7
		c-0.1-0.3-0.4-0.7-0.3-1.1c-0.2-0.9-0.2-1.8,0-2.7l0,0c0.3-0.7,0.3-1.4,0.7-2C36.9,32.6,37.9,32,39,31.7z"/>
	<path class="st33" d="M39,31.7c-0.9,0.6-1.9,1.1-2.6,2.1c-0.1-0.1-0.1-0.2-0.1-0.4C37,32.4,37.8,31.6,39,31.7z"/>
	<path class="st34" d="M36.4,33.4c0,0.1,0,0.3,0.1,0.4c-0.3,0.7-0.6,1.3-0.8,2C35.6,34.8,35.9,34.1,36.4,33.4z"/>
	<path class="st34" d="M35.7,35.7c0,0.9,0,1.8,0,2.7C35.3,37.5,35.3,36.6,35.7,35.7z"/>
	<path class="st35" d="M19.1,35.4c0,0.2,0,0.4,0,0.6c0,3.2-0.4,2.8,2.8,2.2c0.2,0,0.3,0,0.5,0c0.5,0.5,1.2,0.3,1.8,0.3
		c1.1-0.1,1.7,0.2,1.5,1.4c0,0.3,0,0.6,0,0.9c0.1,1-0.4,1.3-1.3,1.4c-3.7,0.4-5.8-1.5-5.9-5.4c0-0.4-0.2-0.9,0.1-1.4
		C18.9,35.3,19,35.3,19.1,35.4z"/>
	<path class="st36" d="M19.1,35.4c-0.1,0-0.2,0-0.4,0c0.5-1.9,1.6-3.4,3.7-3.8c0.1-0.1,0.2-0.1,0.3,0C21.1,32.5,19.7,33.5,19.1,35.4
		z"/>
	<path class="st37" d="M22.7,31.6c-0.1,0-0.2,0-0.3,0c1.1-0.3,2.3-0.4,3.4,0C24.8,31.6,23.8,31.6,22.7,31.6z"/>
	<path class="st38" d="M28,16.3c-0.5,0.4-0.6,0.9-0.7,1.4c-0.1,0.4-0.1,1-0.7,1.2c0.2-0.9,0.5-1.7,0.7-2.6c0.1-0.2,0.1-0.5,0.4-0.5
		C27.9,15.9,27.9,16.1,28,16.3z"/>
	<path class="st39" d="M36.6,15.8c0.3,0.7,0.8,1.5-0.7,1.3c-0.7-0.5-0.1-0.9,0.1-1.4C36.2,15.4,36.5,15.5,36.6,15.8z"/>
	<path class="st40" d="M36.6,15.8c-0.8,0.1-0.9,0.7-0.7,1.3c-0.7,0-0.6-0.4-0.4-0.8c0.2-0.4,0.1-1.1,0.6-1.2
		C36.6,15,36.6,15.4,36.6,15.8z"/>
	<path class="st41" d="M42.8,14.1c0.7,0.2,1.3,0.4,1.2,1.2c0,0.7-0.5,1.1-1.2,1c-0.7,0-0.7-0.6-0.7-1.1
		C42.2,14.6,42.2,14.1,42.8,14.1z"/>
</g>
</svg>
